<?xml version="1.0" encoding="UTF-8"?><svg xmlns="http://www.w3.org/2000/svg" xmlns:xlink="http://www.w3.org/1999/xlink" viewBox="0 0 48 48" version="1.1"><g id="surface1"><path d="M26 16h-4v23a3 3 0 0 1-3 3h-1v2h12v-2h-1a3 3 0 0 1-3-3z" fill="#6D4C41"/><path d="M22.516 39.215l7.859-6.285 1.25 1.562-7.86 6.285z" fill="#6D4C41"/><path d="M16.293 30.844l1.414-1.414 7.86 7.86-1.415 1.413z" fill="#6D4C41"/><path d="M13.7 25.39l-2.4 1.422-.3 1.184 1.574.813-.375.527-1.199.656V31.5l1.652-.129.75 1.05-.078 1.052.602.195.375.328.898-.59s1.574.457 1.426.262c-.148-.195-.3-.984-.3-.984l.898.066.3-.723 1.204-.066-.375-.656 1.203-1.84-.602-1.117-.055-.215L20 27.758v-1.246l-.977-.266s.149-.656-.074-.656h-1.426l-.3-.59h-.75l-.375.656h-1.125z" fill="#27AE60"/><path d="M34.3 29.39l2.4 1.606.3 1.184-1.574.629.375.523 1.199.66V35.5l-1.652-.129-.75 1.05.078 1.052-.602.195-.375.328-.898-.59s-1.574.457-1.426.262c.148-.195.3-.984.3-.984l-.898.066-.3-.723-1.204-.066.375-.656-1.203-1.84.602-1.117.05-.215L28 31.758v-1.246l.977-.266s-.149-.656.074-.656h1.426l.3-.59h.75l.375.656h1.125z" fill="#27AE60"/><path d="M22.285 4.113l-.23.973h-.871l-.059.738-1.45-.168-.116-.629-1.914.172-.235.684-1.047-.172-.578.973L15 7l.031 1.563.871.23-.172 1.312-.699-.23-.113 1.2h-.93l-.754 1.081v.914l.989.742.289.57-.235.458L13 14.78l.059 3.082.754.114v.515l.578.285.058.856 1.16.8.235-.742.636.63.524.398-.117 1.254L17.992 23l.29-.8.523-.173.289-.566.523.168.117.629.578.742H24l1.188-2.055 1.101.285.293.684.871-.973 1.395.23.52.458 1.046-.172.29-.516.5-1.054 1.16.113c.171-.57.636-.684.636-.684l-.148-.77h.636l-.183-1.487L34 17v-4l1-.844-.117-.969-.696.114v-.625H32.91l-.117-1.145-.695-.054v-.743l-.813.059.059-.629-.524-.285.176-1.082-1.394-.629-.813-1.082-.52.625-.812.226-.406-.796-.817-.114-.464-.914-1.102-.058-.117.742-.754-.168L23.273 4z" fill="#27AE60"/></g><metadata><rdf:RDF xmlns:rdf="http://www.w3.org/1999/02/22-rdf-syntax-ns#" xmlns:rdfs="http://www.w3.org/2000/01/rdf-schema#" xmlns:dc="http://purl.org/dc/elements/1.1/"><rdf:Description about="https://iconscout.com/legal#licenses" dc:title="terraria" dc:description="terraria" dc:publisher="Iconscout" dc:date="2017-12-15" dc:format="image/svg+xml" dc:language="en"><dc:creator><rdf:Bag><rdf:li>Icons8</rdf:li></rdf:Bag></dc:creator></rdf:Description></rdf:RDF></metadata></svg>